# xmcd CD database file
#
# Track frame offsets:
#	150
#	12977
#	33140
#	52563
#	71504
#	85390
#	103242
#	117808
#	132068
#	172585
#	182805
#	207472
#	215979
#
# Disc length: 3019 seconds
#
# Revision: 0
# Processed by: cddbd v1.5.2PL0 Copyright (c) Steve Scherf et al.
# Submitted via: CDex 1.51
#
DISCID=ac0bc90d
DTITLE=Trio Infernal - Die gute Band
DYEAR=1998
DGENRE=Jazz
TTITLE0=Summer in the City
TTITLE1=Ich bin der Löwe
TTITLE2=Material Boy
TTITLE3=Ein Haus für New Orleans
TTITLE4=Besame mucho
TTITLE5=Arbeit ist für alle da
TTITLE6=I feel free
TTITLE7=Drehtür im Licht
TTITLE8=Miss you
TTITLE9=Montezuma Bar
TTITLE10=Chiquitita
TTITLE11=Die kleine Fleischerfrau
TTITLE12=Das Model
EXTD=YEAR: 1998
EXTT0=
EXTT1=
EXTT2=
EXTT3=
EXTT4=
EXTT5=
EXTT6=
EXTT7=
EXTT8=
EXTT9=
EXTT10=
EXTT11=
EXTT12=
PLAYORDER=
